<svg transform="scale(1)" version="1.1" id="KBVGQ8kANU" xmlns="http://www.w3.org/2000/svg" xmlns:xlink="http://www.w3.org/1999/xlink" x="0px" y="0px" viewBox="0 0 500 500" xml:space="preserve" class="pbimage_pbimage__wrapper__image__0LEis false"><title>Innovation 2</title><style type="text/css"> .st0{fill:#68E1FD;} .st1{fill:#093F68;} .st2{fill:#FFFFFF;} .st3{fill:#F56132;} .st4{fill:#70CC40;} .st5{fill:#FFBC0E;} .st6{fill:#DFEAEF;}
 .st6{fill:#DFEAEF;}
 .st5{fill:#FFBC0E;}
 .st4{fill:#70CC40;}
 .st3{fill:#F56132;}
 .st2{fill:#FFFFFF;}
 .st1{fill:#093F68;}
 .st0{fill:#68E1FD;}</style><g id="character"><path class="st0" d="M345.2,424.5v-81.6c0-29.4-23.8-53.2-53.2-53.2h0h-84c-29.4,0-53.2,23.8-53.2,53.2l0,0v81.6H345.2z" fill="#68E1FD"></path><path class="st1" d="M345.2,426.4H154.8c-1,0-1.9-0.8-1.9-1.9v-81.6c0-30.4,24.6-55,55-55.1h84c30.4,0.1,55,24.7,55,55.1v81.6
		C347,425.5,346.2,426.4,345.2,426.4z M156.7,422.6h186.6v-79.7c0-28.3-23-51.3-51.3-51.3h-84c-28.3,0-51.3,23-51.3,51.3
		L156.7,422.6z" fill="#093F68"></path><polygon class="st2" points="284.7,289.7 264.4,350.5 248.8,397.2 233.7,347.9 215.8,289.7 	" fill="#FFFFFF"></polygon><path class="st1" d="M248.8,399.1L248.8,399.1c-0.8,0-1.5-0.5-1.8-1.3L214,290.3c-0.3-1,0.3-2,1.3-2.3c0.2-0.1,0.4-0.1,0.5-0.1
		h68.9c0.6,0,1.2,0.3,1.5,0.8c0.4,0.5,0.4,1.1,0.3,1.7l-35.8,107.5C250.4,398.6,249.6,399.1,248.8,399.1z M218.3,291.6l30.6,99.5
		l33.2-99.5H218.3z" fill="#093F68"></path><path class="st3" d="M243.2,289.7h13.6c1.7,0,3.1,1.4,3.1,3.1v9.4c0,1.7-1.4,3.1-3.1,3.1h-13.6c-1.7,0-3.1-1.4-3.1-3.1v-9.4
		C240.1,291.1,241.5,289.7,243.2,289.7z" fill="#F56132"></path><path class="st1" d="M254.1,307.1h-8.3c-4.2,0-7.6-3.4-7.6-7.6v-4.1c0-4.2,3.4-7.6,7.6-7.6h8.3c4.2,0,7.6,3.4,7.6,7.6v4.1
		C261.7,303.7,258.3,307.1,254.1,307.1z M245.9,291.6c-2.1,0-3.9,1.7-3.9,3.9v4.1c0,2.1,1.7,3.9,3.8,3.9c0,0,0,0,0,0h8.3
		c2.1,0,3.9-1.7,3.9-3.9c0,0,0,0,0,0v-4.1c0-2.1-1.7-3.9-3.9-3.9H245.9z" fill="#093F68"></path><polygon class="st3" points="264.4,350.5 248.8,397.2 234.2,349.5 244.3,305.3 255.6,305.3 	" fill="#F56132"></polygon><path class="st1" d="M248.8,399.1L248.8,399.1c-0.8,0-1.5-0.5-1.8-1.3L232.4,350c-0.1-0.3-0.1-0.7,0-1l10.2-44.2
		c0.2-0.8,0.9-1.5,1.8-1.5h11.3c0.9,0,1.7,0.6,1.8,1.5l8.8,45.2c0.1,0.3,0,0.6-0.1,0.9l-15.6,46.7
		C250.4,398.6,249.7,399.1,248.8,399.1z M236.1,349.4l12.8,41.7l13.6-40.7l-8.4-43.2h-8.3L236.1,349.4z" fill="#093F68"></path><path class="st1" d="M198.2,426.4c-1,0-1.9-0.8-1.9-1.9v-89c0-1,0.8-1.9,1.9-1.9s1.9,0.8,1.9,1.9v89
		C200.1,425.5,199.2,426.4,198.2,426.4z" fill="#093F68"></path><path class="st1" d="M301.8,426.4c-1,0-1.9-0.8-1.9-1.9v-89c0-1,0.8-1.9,1.9-1.9c1,0,1.9,0.8,1.9,1.9v89
		C303.7,425.5,302.8,426.4,301.8,426.4L301.8,426.4z" fill="#093F68"></path><polygon class="st0" points="154.8,424.5 131.6,334.1 100.2,343.5 112.1,424.5 	" fill="#68E1FD"></polygon><path class="st1" d="M154.8,426.4h-42.7c-0.9,0-1.7-0.7-1.8-1.6l-11.9-81c-0.1-0.9,0.4-1.8,1.3-2.1l31.3-9.4c1-0.3,2,0.3,2.3,1.2
		c0,0,0,0.1,0,0.1l23.3,90.4c0.3,1-0.3,2-1.3,2.3C155.1,426.3,155,426.3,154.8,426.4L154.8,426.4z M113.8,422.6h38.7l-22.2-86.2
		l-27.9,8.4L113.8,422.6z" fill="#093F68"></path><path class="st2" d="M131.6,334.1c0,0-1.3-16.3-5.3-24.7s-10-19-12.7-15s2.7,15.7,2.7,15.7s-47-9.7-52-3.7s-4.3,13,0,16.7
		s31.9,13,31.9,13s3.2,4,4.1,7.4L131.6,334.1z" fill="#FFFFFF"></path><path class="st1" d="M100.2,345.3c-0.3,0-0.6-0.1-0.9-0.2c-0.4-0.2-0.8-0.7-0.9-1.2c-0.8-2.3-1.9-4.4-3.4-6.2
		c-4.6-1.6-27.7-9.6-32-13.2c-5.5-4.6-5.5-12.9-0.2-19.3c4.9-5.8,36.4-0.4,50.4,2.4c-1.6-4.2-3.4-10.8-1.2-14.2
		c0.7-1.1,1.9-1.8,3.2-1.7c1.4,0.1,4.8,0.3,12.7,16.9c4.1,8.5,5.5,24.6,5.5,25.3c0.1,0.9-0.5,1.7-1.3,1.9l-31.3,9.4
		C100.6,345.3,100.4,345.3,100.2,345.3z M73.1,306.3c-4,0-6.7,0.4-7.5,1.3c-4.6,5.5-3.6,11.2-0.2,14.1c3,2.5,20.4,9,31.3,12.7
		c0.3,0.1,0.6,0.3,0.8,0.6c1.5,1.9,2.8,4,3.8,6.3l28.2-8.4c-0.4-4.2-1.9-16-5-22.5c-5.1-10.7-8.3-14.3-9.4-14.8
		c-1.3,2.4,0.9,9.6,2.8,13.8c0.4,0.9,0,2-0.9,2.5c-0.4,0.2-0.8,0.2-1.2,0.1C100.2,308.7,82.8,306.3,73.1,306.3z" fill="#093F68"></path><path class="st1" d="M106.2,322.3c-1,0-1.8-0.7-1.9-1.7c-0.6-7.9,7.3-11.5,11.5-12.3c1-0.2,2,0.5,2.2,1.5s-0.5,2-1.5,2.2l0,0l0,0
		c-0.4,0.1-9,1.8-8.5,8.4c0.1,1-0.7,1.9-1.7,2c0,0,0,0,0,0L106.2,322.3z" fill="#093F68"></path><polygon class="st0" points="346.4,424.5 369.7,334.1 401,343.5 389.1,424.5 	" fill="#68E1FD"></polygon><path class="st1" d="M389.1,426.4h-42.7c-1,0-1.9-0.8-1.9-1.9c0-0.2,0-0.3,0.1-0.5l23.3-90.4c0.1-0.5,0.4-0.9,0.9-1.2
		c0.4-0.3,1-0.3,1.5-0.2l31.4,9.4c0.9,0.3,1.4,1.1,1.3,2.1l-11.9,81C390.8,425.7,390,426.4,389.1,426.4z M348.8,422.6h38.7
		l11.5-77.8l-27.9-8.4L348.8,422.6z" fill="#093F68"></path><path class="st2" d="M369.7,334.1c0,0,1.3-16.3,5.3-24.7s10-19,12.7-15s-2.7,15.7-2.7,15.7s47-9.7,52-3.7s4.3,13,0,16.7
		s-31.9,13-31.9,13s-3.2,4-4.1,7.4L369.7,334.1z" fill="#FFFFFF"></path><path class="st1" d="M401,345.3c-0.2,0-0.4,0-0.5-0.1l-31.4-9.4c-0.8-0.3-1.4-1.1-1.3-1.9c0.1-0.7,1.4-16.8,5.5-25.3
		c8-16.6,11.3-16.8,12.7-16.9c1.3-0.1,2.5,0.6,3.2,1.7c2.2,3.4,0.4,10-1.2,14.2c14-2.8,45.5-8.2,50.4-2.4c5.3,6.4,5.2,14.7-0.2,19.3
		c-4.3,3.6-27.4,11.6-32,13.2c-1.5,1.9-2.6,4-3.4,6.2C402.6,344.7,401.9,345.3,401,345.3L401,345.3z M371.6,332.7l28.2,8.4
		c1-2.2,2.3-4.3,3.8-6.3c0.2-0.3,0.5-0.5,0.9-0.6c11-3.7,28.3-10.1,31.3-12.7c3.4-2.8,4.4-8.6-0.2-14.1c-2.6-3.2-28.1-0.2-50.2,4.3
		c-1,0.2-2-0.4-2.2-1.4c-0.1-0.4,0-0.8,0.1-1.2c2-4.3,4.2-11.7,2.8-13.9c-1.1,0.5-4.3,4-9.5,14.8
		C373.6,316.7,372.1,328.6,371.6,332.7L371.6,332.7z" fill="#093F68"></path><path class="st1" d="M395,322.3h-0.2c-1-0.1-1.8-1-1.7-2c0,0,0,0,0,0c0.5-6.5-8.1-8.3-8.5-8.4c-1-0.2-1.7-1.2-1.5-2.2
		c0.2-1,1.2-1.7,2.2-1.5c4.3,0.8,12.1,4.4,11.5,12.3C396.8,321.5,396,322.3,395,322.3z" fill="#093F68"></path></g><g id="gears"><path class="st3" d="M154.9,224.6c-0.1-2.8-2-5.1-4.7-5.7c-2.3-0.5-4.6-0.9-6.9-1.2c-0.7,0-1.2-0.5-1.4-1.1
		c-0.7-1.8-1.5-3.7-2.3-5.5c-0.3-0.4-0.2-1,0.1-1.4c1.4-1.9,2.8-3.8,4.1-5.8c1.5-2.3,1.3-5.4-0.5-7.4c-2.1-2.3-4.4-4.5-6.6-6.8
		c-2.3-2.6-6.2-2.9-8.9-0.8c-1.7,1.2-3.5,2.4-5.2,3.7c-0.4,0.3-0.9,0.4-1.4,0.1c-2-0.9-3.9-1.7-5.9-2.4c-0.5-0.1-0.8-0.6-0.9-1.1
		c-0.3-2.1-0.7-4.2-1-6.4c-0.4-3.1-3-5.4-6.1-5.5c-3.3-0.1-6.5-0.1-9.8,0c-2.9,0.1-5.3,2.1-5.9,4.8c-0.5,2.4-0.9,4.8-1.3,7.2
		c0,0.5-0.4,0.9-0.9,1.1c-1.9,0.8-3.8,1.6-5.7,2.4c-0.4,0.3-0.9,0.2-1.3-0.1c-1.9-1.4-3.8-2.8-5.7-4.1c-2.3-1.6-5.4-1.4-7.5,0.5
		c-2.5,2.3-4.9,4.6-7.2,7.1s-2.4,5.6-0.4,8.3c1.3,1.8,2.6,3.6,3.9,5.5c0.2,0.3,0.2,0.7,0.1,1c-0.8,2.1-1.6,4.1-2.5,6.1
		c-0.2,0.3-0.4,0.5-0.8,0.6c-2.1,0.4-4.2,0.7-6.3,1.1c-3.1,0.4-5.5,2.9-5.7,6c-0.1,3.4-0.1,6.8,0,10.2c0.1,2.7,2,5,4.7,5.6
		c2.4,0.5,4.9,0.9,7.3,1.3c0.5,0,0.9,0.4,1,0.8c0.8,1.9,1.6,3.9,2.4,5.8c0.2,0.4,0.2,0.9-0.1,1.2c-1.3,1.8-2.6,3.5-3.8,5.3
		c-2,2.6-1.7,6.3,0.7,8.6c2,2.1,4.1,4.1,6.2,6.2c2.3,2.5,6.2,2.8,8.8,0.7c1.8-1.2,3.6-2.5,5.3-3.8c0.3-0.3,0.8-0.3,1.2-0.1
		c1.8,0.8,3.6,1.6,5.5,2.2c0.6,0.2,1,0.7,1,1.3c0.3,2.1,0.7,4.2,1,6.3c0.4,3,2.9,5.3,5.9,5.5c3.4,0.1,6.9,0.1,10.3,0
		c2.8-0.1,5.1-2.1,5.7-4.8c0.5-2.3,0.8-4.7,1.2-7c0-0.6,0.4-1.1,1-1.2c1.9-0.7,3.8-1.5,5.7-2.4c0.4-0.2,0.9-0.2,1.2,0.1
		c1.8,1.3,3.5,2.5,5.3,3.8c1.2,0.9,2.7,1.4,4.3,1.3c1.4,0,2.8-0.6,3.8-1.5c2.2-2.1,4.4-4.3,6.6-6.5c2.6-2.3,3-6.3,0.8-9
		c-1.2-1.7-2.4-3.5-3.7-5.2c-0.3-0.3-0.3-0.8-0.1-1.2c0.8-1.9,1.6-3.8,2.4-5.8c0.1-0.5,0.6-0.8,1.1-0.9c2.1-0.3,4.2-0.7,6.4-1
		c3.1-0.4,5.4-3,5.6-6.1C155,231.3,155,227.9,154.9,224.6z M102.6,252.3c-12.5,0-22.6-10.2-22.5-22.6c0-12.5,10.2-22.6,22.6-22.5
		c12.5,0,22.6,10.2,22.5,22.6C125.2,242.2,115,252.3,102.6,252.3z"></path><path class="st1" d="M102.7,254.3h-0.2c-6.6,0-12.9-2.7-17.5-7.4c-4.5-4.6-7.1-10.8-7-17.2c0.1-13.5,11.1-24.4,24.6-24.5l0,0
		c13.6,0,24.6,11,24.6,24.5c0,6.6-2.7,13-7.4,17.6C115.3,251.7,109.1,254.3,102.7,254.3z M102.6,250.3h0.2c5.4,0,10.5-2.1,14.3-5.9
		c3.9-3.9,6.2-9.1,6.2-14.7c0-5.4-2.1-10.7-6-14.5c-3.9-3.9-9.1-6.1-14.6-6.1l0,0c-11.3,0-20.5,9.1-20.6,20.4c0,0,0,0.1,0,0.1
		c-0.1,5.4,2.1,10.6,5.8,14.4C91.7,248,97,250.2,102.6,250.3L102.6,250.3z"></path><path class="st1" d="M102.5,284.1c-1.8,0-3.5,0-5.1-0.1c-4-0.2-7.2-3.2-7.8-7.1c-0.4-2-0.7-4.1-1-6.1c-1.7-0.6-3.4-1.4-4.9-2
		c-1.7,1.2-3.3,2.4-4.9,3.5c-3.4,2.7-8.4,2.3-11.3-0.9c-2-2-4.1-4-6.2-6.2c-3.1-2.9-3.5-7.7-1-11.1c1.1-1.6,2.2-3.2,3.6-5
		c-0.9-1.9-1.5-3.6-2.2-5.1l-1.3-0.2c-1.9-0.3-3.9-0.6-5.8-1.1c-3.5-0.8-6.1-3.9-6.3-7.6c-0.1-3.6-0.1-7,0-10.3
		c0.2-4.1,3.3-7.4,7.4-7.9c1.9-0.3,3.8-0.6,5.8-1c0.7-1.7,1.4-3.4,2.1-5.1c-0.6-0.9-1.2-1.7-1.8-2.6s-1.2-1.6-1.7-2.4
		c-2.5-3.3-2.3-7.9,0.6-10.8c2.2-2.4,4.6-4.7,7.3-7.2c2.8-2.5,6.9-2.8,10-0.7c1.9,1.2,3.7,2.6,5.4,3.9c1.9-0.8,3.6-1.5,5.1-2.2
		l0.2-1c0.3-1.9,0.6-3.9,1.1-5.9c0.8-3.7,4.1-6.3,7.8-6.4c3.3-0.1,6.7-0.1,9.9,0c4,0.2,7.4,3.2,8,7.1c0.3,2,0.7,4,1,6
		c1.8,0.7,3.6,1.4,5.4,2.2c1.5-1.1,3.1-2.2,4.9-3.5c3.5-2.7,8.4-2.2,11.4,1c0.6,0.6,1.1,1.1,1.7,1.7c1.7,1.6,3.4,3.4,5,5.1
		c2.4,2.7,2.8,6.8,0.7,9.8c-1.1,1.8-2.4,3.5-3.6,5.2l-0.3,0.4c0.9,2,1.6,3.6,2.1,5.2c2.5,0.4,4.7,0.7,6.9,1.2
		c3.6,0.8,6.2,3.9,6.3,7.6c0.1,3.6,0.1,6.9,0,10.1c-0.2,4.1-3.2,7.4-7.2,8c-2,0.4-4,0.7-6.1,1c-0.6,1.6-1.4,3.3-2.1,5.1
		c1.1,1.6,2.3,3.2,3.4,4.9c2.7,3.5,2.3,8.6-1,11.6l-1.2,1.2c-1.8,1.8-3.6,3.6-5.5,5.4c-1.4,1.3-3.2,2.1-5.1,2.1
		c-2,0.1-3.9-0.5-5.5-1.7l-2.1-1.5l-2.8-2c-1.9,0.8-3.6,1.5-5.2,2.1l-0.2,0.9c-0.3,1.9-0.6,4-1.1,5.9c-0.8,3.6-3.9,6.2-7.6,6.4
		C105.9,284,104.2,284.1,102.5,284.1z M83.5,264.6c0.5,0,0.9,0.1,1.4,0.3c1.6,0.7,3.5,1.5,5.4,2.2c1.3,0.4,2.2,1.5,2.3,2.9
		c0.3,2.1,0.7,4.1,1,6.2c0.2,2.1,1.9,3.7,4,3.8c3.2,0.1,6.5,0.1,10.2,0c1.8-0.1,3.4-1.4,3.8-3.2c0.4-1.9,0.7-3.8,1-5.7l0.2-1.2
		c0.2-1.3,1-2.3,2.2-2.8c1.7-0.6,3.5-1.4,5.6-2.3c1.1-0.5,2.3-0.4,3.2,0.3c1,0.8,2.1,1.5,3.1,2.2c0.7,0.5,1.4,1,2.2,1.5
		c0.9,0.6,2,1,3.1,0.9c0.9,0,1.8-0.4,2.5-1c1.8-1.7,3.6-3.5,5.4-5.3l1.2-1.2c1.9-1.6,2.2-4.5,0.6-6.4c0,0,0,0,0,0
		c-1.2-1.7-2.4-3.4-3.7-5.1c-0.7-0.9-0.8-2.2-0.3-3.2c0.9-2,1.7-3.9,2.4-5.7c0.4-1.2,1.4-2,2.7-2.1c2.1-0.3,4.2-0.7,6.3-1
		c2.1-0.2,3.8-2,3.9-4.1c0.1-3.2,0.1-6.4,0-9.9l0,0c-0.1-1.8-1.4-3.4-3.2-3.8c-2.2-0.5-4.4-0.8-6.8-1.2c-1.4-0.2-2.5-1.1-2.9-2.5
		c-0.6-1.6-1.3-3.3-2.2-5.3c-0.6-1.1-0.4-2.4,0.3-3.4l0.6-0.8c1.2-1.6,2.4-3.3,3.5-5c1-1.5,0.9-3.6-0.3-5c-1.6-1.7-3.2-3.4-4.9-5
		l-1.7-1.7c-1.6-1.9-4.4-2.1-6.3-0.6c-1.9,1.3-3.6,2.5-5.1,3.6c-1,0.8-2.3,0.9-3.4,0.4c-1.9-0.9-3.9-1.7-5.8-2.4
		c-1.2-0.4-2-1.4-2.2-2.6c-0.3-2.1-0.7-4.2-1-6.3c-0.3-2.1-2.1-3.8-4.2-3.8c-3.2-0.1-6.4-0.1-9.7,0c-1.9,0-3.6,1.4-4,3.3
		c-0.4,1.9-0.7,3.8-1,5.7l-0.2,1.4c-0.2,1.2-1,2.2-2.1,2.6c-1.7,0.7-3.5,1.4-5.6,2.4c-1.1,0.5-2.4,0.4-3.3-0.3l-0.2-0.1
		c-1.8-1.3-3.6-2.7-5.4-3.9c-1.5-1.1-3.6-0.9-5,0.3c-2.6,2.4-4.9,4.7-7.1,7c-1.6,1.6-1.7,4.1-0.2,5.8l1.7,2.4c0.7,1,1.4,2,2.2,3.1
		c0.5,0.8,0.7,1.9,0.3,2.8c-0.8,2.1-1.6,4.2-2.5,6.2c-0.4,0.9-1.3,1.6-2.3,1.8c-2.1,0.4-4.3,0.8-6.4,1.1c-2.1,0.2-3.8,1.9-4,4
		c-0.1,3.2-0.1,6.5,0,10.1c0.1,1.8,1.4,3.4,3.1,3.8c1.8,0.4,3.7,0.7,5.6,1l1.7,0.3c1.2,0.2,2.1,1,2.5,2.1c0.7,1.7,1.4,3.5,2.4,5.7
		c0.5,1,0.4,2.3-0.3,3.2c-1.4,1.9-2.6,3.6-3.8,5.2c-1.5,1.8-1.2,4.5,0.5,6.1c2.2,2.2,4.2,4.2,6.2,6.1c1.6,1.9,4.4,2.1,6.2,0.5
		c1.7-1.2,3.5-2.5,5.3-3.8C82.3,264.7,82.9,264.6,83.5,264.6L83.5,264.6z M61.9,215.8L61.9,215.8z"></path><path class="st4" d="M449.7,224.6c-0.1-2.8-2.1-5.1-4.8-5.7c-2.3-0.5-4.6-0.9-6.9-1.2c-0.7,0-1.2-0.5-1.4-1.1
		c-0.7-1.8-1.5-3.7-2.3-5.5c-0.3-0.4-0.2-1,0.1-1.4c1.4-1.9,2.8-3.8,4.1-5.8c1.5-2.3,1.3-5.4-0.5-7.4c-2.1-2.3-4.4-4.5-6.6-6.8
		c-2.3-2.6-6.2-2.9-8.9-0.8c-1.7,1.2-3.5,2.4-5.2,3.7c-0.4,0.3-0.9,0.4-1.4,0.1c-2-0.9-3.9-1.7-5.9-2.4c-0.5-0.1-0.9-0.6-0.9-1.1
		c-0.3-2.1-0.7-4.2-1-6.4c-0.4-3.1-3-5.4-6.1-5.5c-3.3-0.1-6.5-0.1-9.8,0c-2.9,0-5.3,2.1-5.9,4.8c-0.5,2.4-0.9,4.8-1.3,7.2
		c0,0.5-0.4,0.9-0.9,1.1c-1.9,0.8-3.8,1.6-5.7,2.4c-0.4,0.3-0.9,0.2-1.3-0.1c-1.9-1.4-3.8-2.8-5.7-4.1c-2.3-1.6-5.4-1.4-7.5,0.5
		c-2.5,2.3-4.9,4.6-7.2,7.1s-2.4,5.6-0.4,8.3c1.3,1.8,2.6,3.6,3.9,5.5c0.2,0.3,0.2,0.7,0.1,1c-0.8,2.1-1.6,4.1-2.5,6.1
		c-0.2,0.3-0.4,0.5-0.8,0.6c-2.1,0.4-4.2,0.7-6.3,1.1c-3.1,0.4-5.5,2.9-5.7,6c-0.1,3.4-0.1,6.8,0,10.2c0.1,2.7,2,5.1,4.7,5.7
		c2.4,0.5,4.9,0.9,7.3,1.3c0.5,0,0.9,0.4,1,0.8c0.8,1.9,1.6,3.9,2.4,5.8c0.2,0.4,0.2,0.9-0.1,1.2c-1.3,1.8-2.6,3.5-3.8,5.3
		c-2,2.6-1.7,6.3,0.7,8.6c2,2.1,4.1,4.1,6.2,6.2c2.3,2.5,6.2,2.8,8.8,0.7c1.8-1.2,3.5-2.5,5.3-3.8c0.3-0.3,0.8-0.3,1.2-0.1
		c1.8,0.8,3.6,1.6,5.5,2.2c0.6,0.2,1,0.7,1,1.3c0.3,2.1,0.7,4.2,1,6.3c0.4,3,2.8,5.3,5.8,5.5c3.4,0.1,6.9,0.1,10.3,0
		c2.8-0.1,5.1-2.1,5.7-4.8c0.5-2.3,0.9-4.7,1.2-7c0-0.6,0.4-1.1,1-1.2c1.9-0.7,3.8-1.5,5.7-2.4c0.4-0.2,0.9-0.2,1.2,0.1
		c1.8,1.3,3.5,2.5,5.3,3.8c1.2,0.9,2.7,1.4,4.3,1.3c1.4,0,2.8-0.6,3.8-1.5c2.2-2.1,4.4-4.3,6.6-6.5c2.6-2.3,3-6.3,0.8-9
		c-1.2-1.7-2.4-3.5-3.7-5.2c-0.3-0.3-0.3-0.8-0.1-1.2c0.8-1.9,1.6-3.8,2.4-5.8c0.1-0.5,0.6-0.8,1.1-0.9c2.1-0.3,4.2-0.7,6.4-1
		c3.1-0.4,5.4-3,5.5-6.1C449.8,231.3,449.8,227.9,449.7,224.6z M397.4,252.3c-12.5,0-22.6-10.2-22.5-22.6
		c0-12.5,10.2-22.6,22.6-22.5c12.5,0,22.6,10.1,22.5,22.6C420,242.2,409.8,252.3,397.4,252.3z"></path><path class="st1" d="M397.5,254.3h-0.2c-6.6,0-12.9-2.7-17.5-7.4c-4.6-4.6-7.1-10.8-7-17.2c0.1-13.5,11.1-24.4,24.6-24.5l0,0
		C411,205,422,216,422,229.6S411.1,254.2,397.5,254.3L397.5,254.3z M397.4,250.3c5.4,0.1,10.6-2.1,14.4-5.9
		c3.9-3.9,6.2-9.2,6.2-14.7c0-5.4-2.1-10.7-6-14.5c-3.9-3.9-9.1-6.1-14.6-6.1l0,0c-11.3,0-20.5,9.1-20.6,20.4c0,0,0,0.1,0,0.1
		c-0.1,5.4,2.1,10.6,5.9,14.4C386.5,248,391.8,250.2,397.4,250.3L397.4,250.3z"></path><path class="st1" d="M397.3,284.1c-1.8,0-3.5,0-5.1-0.1c-3.9-0.2-7.2-3.2-7.7-7.1c-0.4-2-0.7-4.1-1-6.1c-1.7-0.6-3.4-1.4-4.9-2
		c-1.6,1.2-3.3,2.4-4.9,3.5c-3.4,2.7-8.4,2.3-11.4-0.9c-2-2-4-4-6.2-6.2c-3.1-2.9-3.6-7.7-1-11.2c1.1-1.6,2.2-3.2,3.6-5
		c-0.9-1.9-1.5-3.6-2.2-5.1l-1.3-0.2c-1.9-0.3-3.9-0.6-5.8-1.1c-3.5-0.8-6.1-3.9-6.3-7.6c-0.1-3.6-0.1-7,0-10.3
		c0.2-4.1,3.3-7.4,7.4-7.9c1.9-0.3,3.8-0.6,5.8-1c0.7-1.7,1.4-3.4,2.1-5.1l-1.8-2.6c-0.6-0.8-1.2-1.6-1.7-2.4
		c-2.5-3.3-2.3-7.9,0.6-10.8c2.2-2.4,4.6-4.7,7.3-7.2c2.8-2.5,6.9-2.8,9.9-0.7c1.9,1.2,3.7,2.6,5.5,3.9c1.9-0.8,3.5-1.5,5.1-2.2
		l0.2-1c0.3-1.9,0.6-3.9,1.1-5.9c0.8-3.7,4.1-6.3,7.8-6.4c3.3-0.1,6.7-0.1,9.9,0c4.1,0.1,7.4,3.1,8,7.1c0.4,2,0.7,4,1,6
		c1.8,0.7,3.6,1.4,5.4,2.2c1.5-1.1,3.1-2.3,4.9-3.5c3.5-2.7,8.4-2.2,11.4,1l1.7,1.7c1.7,1.6,3.4,3.4,5,5.1c2.4,2.7,2.7,6.8,0.7,9.8
		c-1.1,1.8-2.4,3.5-3.6,5.2l-0.3,0.4c0.9,2,1.5,3.6,2.1,5.2c2.5,0.4,4.7,0.7,6.9,1.2c3.6,0.8,6.2,3.9,6.3,7.6
		c0.1,3.6,0.1,6.9,0,10.1c-0.2,4.1-3.2,7.4-7.2,8c-2,0.4-4,0.7-6,1c-0.6,1.6-1.3,3.3-2.1,5.1c1.1,1.6,2.3,3.2,3.5,4.9
		c2.8,3.5,2.3,8.6-1,11.6l-1.2,1.2c-1.8,1.8-3.6,3.6-5.4,5.3c-1.4,1.3-3.2,2.1-5.1,2.1c-2,0.1-3.9-0.5-5.5-1.7l-2.1-1.5
		c-0.9-0.7-1.9-1.3-2.8-2c-1.9,0.8-3.6,1.5-5.1,2.1l-0.1,0.9c-0.3,2-0.6,4-1.1,6c-0.8,3.6-3.9,6.2-7.6,6.4
		C400.8,284,399,284.1,397.3,284.1z M378.3,264.6c0.5,0,0.9,0.1,1.4,0.3c1.6,0.7,3.5,1.5,5.4,2.2c1.3,0.4,2.2,1.5,2.3,2.9
		c0.3,2.1,0.7,4.2,1,6.2c0.2,2.1,1.9,3.7,4,3.8c3.2,0.1,6.5,0.1,10.2,0c1.8-0.1,3.4-1.4,3.8-3.2c0.4-1.9,0.7-3.8,1-5.7l0.2-1.2
		c0.1-1.3,1-2.4,2.2-2.8c1.7-0.6,3.5-1.4,5.6-2.3c1.1-0.5,2.3-0.4,3.2,0.3c1,0.8,2.1,1.5,3.1,2.2l2.2,1.5c0.9,0.7,2,1,3.1,0.9
		c0.9,0,1.8-0.4,2.5-1c1.8-1.7,3.6-3.5,5.3-5.2l1.2-1.2c1.9-1.6,2.2-4.5,0.6-6.4c0,0,0,0,0,0c-1.2-1.8-2.5-3.5-3.7-5.1
		c-0.7-0.9-0.9-2.2-0.3-3.2c0.9-2,1.7-3.9,2.4-5.7c0.4-1.2,1.4-2,2.7-2.1c2.1-0.3,4.2-0.7,6.3-1c2.1-0.2,3.8-2,3.9-4.1
		c0.1-3.2,0.1-6.4,0-9.9l0,0c-0.1-1.8-1.4-3.4-3.2-3.8c-2.2-0.5-4.4-0.8-6.8-1.2c-1.4-0.2-2.5-1.1-3-2.4c-0.6-1.6-1.3-3.3-2.2-5.3
		c-0.5-1.1-0.4-2.4,0.3-3.4l0.5-0.7c1.2-1.6,2.4-3.3,3.5-5c1.1-1.5,0.9-3.6-0.3-5c-1.5-1.7-3.2-3.4-4.9-5c-0.6-0.6-1.1-1.1-1.7-1.7
		c-1.6-1.9-4.4-2.1-6.3-0.6c-1.9,1.3-3.6,2.5-5.1,3.6c-1,0.8-2.3,0.9-3.4,0.4c-1.9-0.9-3.9-1.7-5.8-2.4c-1.2-0.4-2-1.4-2.2-2.6
		c-0.3-2.1-0.7-4.2-1-6.3c-0.3-2.1-2-3.8-4.2-3.8c-3.1-0.1-6.4-0.1-9.7,0c-1.9,0-3.6,1.4-4,3.3c-0.4,1.9-0.7,3.8-1,5.7l-0.2,1.4
		c-0.2,1.2-1,2.2-2.1,2.6c-1.7,0.7-3.5,1.4-5.6,2.4c-1.1,0.5-2.4,0.4-3.3-0.3l-0.2-0.2c-1.8-1.3-3.6-2.6-5.4-3.9
		c-1.5-1.1-3.6-0.9-5,0.3c-2.6,2.4-5,4.7-7.1,7s-1.4,4.4-0.4,5.8c0.6,0.8,1.1,1.6,1.7,2.4c0.7,1,1.5,2,2.2,3.1
		c0.5,0.8,0.7,1.9,0.3,2.8c-0.8,2.1-1.6,4.2-2.5,6.2c-0.4,0.9-1.3,1.6-2.2,1.8c-2.1,0.4-4.3,0.8-6.4,1.1c-2.1,0.2-3.8,1.9-4,4
		c-0.1,3.2-0.1,6.5,0,10.1c0.1,1.8,1.4,3.4,3.1,3.8c1.8,0.4,3.7,0.7,5.6,1l1.6,0.3c1.2,0.2,2.2,1,2.5,2.1c0.7,1.7,1.4,3.5,2.4,5.7
		c0.5,1,0.4,2.3-0.3,3.2c-1.4,1.9-2.6,3.6-3.8,5.2c-1.5,1.8-1.2,4.5,0.5,6.1c2.1,2.2,4.2,4.2,6.1,6.1c1.6,1.9,4.4,2.1,6.3,0.5
		c1.7-1.2,3.5-2.5,5.3-3.8C377,264.8,377.7,264.6,378.3,264.6L378.3,264.6z M356.7,215.8L356.7,215.8z"></path></g><g id="light"><path class="st2" d="M309.8,167.5c0-33-26.8-59.8-59.8-59.8c-33,0-59.8,26.8-59.8,59.8c0,13,4.3,25.7,12.1,36.1
		c11.6,15.2,17.9,33.9,17.9,53h59.6c0-18.9,5.8-37.5,17.4-52.4C305.4,193.7,309.8,180.8,309.8,167.5z"></path><path class="st1" d="M279.8,258.4h-59.6c-1,0-1.9-0.8-1.9-1.9c0-18.7-6.2-37-17.5-51.9c-20.6-27.2-15.2-65.8,11.9-86.4
		s65.8-15.2,86.4,11.9c8.1,10.7,12.5,23.8,12.5,37.3c0,13.7-4.5,27.1-13,37.8c-11,14.1-17,32.3-17,51.3
		C281.7,257.6,280.8,258.4,279.8,258.4C279.8,258.4,279.8,258.4,279.8,258.4z M222.1,254.7H278c0.4-19.1,6.7-37.4,17.8-51.7
		c8-10.1,12.3-22.7,12.2-35.6c0-16.1-6.7-31.4-18.4-42.4c-23.4-21.8-60.1-20.6-81.9,2.8c-19.2,20.6-20.8,52-3.8,74.5
		C215.3,217.5,221.6,235.8,222.1,254.7z"></path><path class="st5" d="M216.7,273.2h65c2.1,0,3.7,1.7,3.7,3.7v9.1c0,2.1-1.7,3.7-3.7,3.7h-65c-2.1,0-3.7-1.7-3.7-3.7v-9.1
		C213,274.8,214.6,273.2,216.7,273.2z"></path><path class="st1" d="M278.5,291.6h-58.6c-4.9,0-8.8-3.9-8.8-8.8v-2.7c0-4.9,3.9-8.8,8.8-8.8h58.6c4.9,0,8.8,3.9,8.8,8.8v2.7
		C287.3,287.7,283.3,291.6,278.5,291.6z M219.9,275c-2.8,0-5.1,2.3-5.1,5.1v2.7c0,2.8,2.3,5.1,5.1,5.1h58.6c2.8,0,5.1-2.3,5.1-5.1
		v-2.7c0-2.8-2.3-5.1-5.1-5.1H219.9z"></path><path class="st5" d="M216.7,256.6h65c2.1,0,3.7,1.7,3.7,3.7v9.1c0,2.1-1.7,3.7-3.7,3.7h-65c-2.1,0-3.7-1.7-3.7-3.7v-9.1
		C213,258.3,214.6,256.6,216.7,256.6z"></path><path class="st1" d="M278.5,275h-58.6c-4.9,0-8.8-3.9-8.8-8.8v-2.7c0-4.9,3.9-8.8,8.8-8.8h58.6c4.9,0,8.8,3.9,8.8,8.8v2.7
		C287.3,271.1,283.3,275,278.5,275z M219.9,258.5c-2.8,0-5.1,2.3-5.1,5.1v2.7c0,2.8,2.3,5.1,5.1,5.1h58.6c2.8,0,5.1-2.3,5.1-5.1
		v-2.7c0-2.8-2.3-5.1-5.1-5.1H219.9z"></path><path class="st5" d="M216.7,240.1h65c2.1,0,3.7,1.7,3.7,3.7v9.1c0,2.1-1.7,3.7-3.7,3.7h-65c-2.1,0-3.7-1.7-3.7-3.7v-9.1
		C213,241.8,214.6,240.1,216.7,240.1z"></path><path class="st1" d="M278.5,258.5h-58.6c-4.9,0-8.8-3.9-8.8-8.8V247c0-4.9,3.9-8.8,8.8-8.8h58.6c4.9,0,8.8,3.9,8.8,8.8v2.7
		C287.3,254.6,283.3,258.5,278.5,258.5C278.5,258.5,278.5,258.5,278.5,258.5z M219.9,242c-2.8,0-5.1,2.3-5.1,5.1v2.7
		c0,2.8,2.3,5.1,5.1,5.1h58.6c2.8,0,5.1-2.3,5.1-5.1V247c0-2.8-2.3-5.1-5.1-5.1L219.9,242z"></path><path class="st1" d="M259.9,242c-1,0-1.8-0.8-1.9-1.8c-0.1-1.9-1-29.5,1.3-54.6c-2.7,0.6-5.6,1-8.4,1c-3.5,0.1-7-0.2-10.5-0.7
		c0.3,3.8,0.6,7.8,0.9,12.1c1.2,21.5,0.7,41.9,0.7,42.1c0,1-0.9,1.8-1.9,1.8l0,0c-1,0-1.8-0.9-1.8-1.9c0,0,0,0,0,0
		c0.4-18.3-0.1-36.6-1.7-54.9c-15.7-3.5-23.9-13-25.1-22.4c-1.1-8.5,3.7-15.6,11.9-17.7c2.2-0.6,4.5,0,6.2,1.4
		c5,4,8.5,15.7,10.5,35.6c3.6,0.6,7.2,0.8,10.8,0.8c3,0,5.9-0.4,8.8-1.2c1.7-15.8,4.7-30,10.2-35.1c1.6-1.7,3.9-2.5,6.2-2.2
		c12.6,1.4,13.6,9.3,13.4,12.7c-0.3,6.3-4.8,13.6-12,19.5c-4.3,3.5-9.2,6.3-14.4,8.1c-1.5,18.4-2,37-1.4,55.4
		C261.8,241,261,241.9,259.9,242C259.9,241.9,259.9,241.9,259.9,242L259.9,242z M225.1,148.6c-0.3,0-0.6,0-0.8,0.1
		c-6.4,1.6-10,7-9.1,13.6c1,7.8,7.9,15.7,21,19c-1.6-15.4-4.4-28.2-9-31.9C226.6,148.9,225.9,148.6,225.1,148.6L225.1,148.6z
		 M275.3,148c-1.1,0-2.1,0.5-2.9,1.3c-4.5,4.2-7.2,16.5-8.8,31.1c12.6-4.9,21.8-15.8,22.2-23.6c0.3-6.3-5.3-8.3-10.1-8.8L275.3,148z
		"></path><path class="st6" d="M171.5,156.6c-0.2,0-0.4,0-0.6-0.1l-11.3-3.9c-1-0.3-1.5-1.4-1.2-2.4c0.3-1,1.4-1.5,2.4-1.1l11.3,3.9
		c1,0.3,1.5,1.4,1.1,2.4C173,156.1,172.3,156.6,171.5,156.6z"></path><path class="st6" d="M250.4,93c-1,0-1.9-0.8-1.9-1.9v-14c-0.1-1,0.7-1.9,1.7-2c1-0.1,1.9,0.7,2,1.7c0,0.1,0,0.2,0,0.3v14
		C252.3,92.2,251.5,93,250.4,93z"></path><path class="st6" d="M198.2,111.3c-0.5,0-1-0.2-1.3-0.5l-8-7.7c-0.7-0.7-0.8-1.9-0.1-2.6c0.7-0.7,1.9-0.8,2.6,0l8,7.7
		c0.7,0.7,0.7,1.9,0,2.6C199.1,111.1,198.7,111.3,198.2,111.3z"></path><path class="st6" d="M330.3,156.6c-1,0-1.9-0.9-1.8-1.9c0-0.8,0.5-1.5,1.2-1.7l10.8-3.7c1-0.3,2,0.2,2.4,1.1c0.3,1-0.2,2-1.1,2.4
		l-10.8,3.7C330.7,156.5,330.5,156.6,330.3,156.6z"></path><path class="st6" d="M303.6,111.3c-0.5,0-1-0.2-1.3-0.6c-0.7-0.7-0.7-1.9,0-2.6l10-9.7c0.8-0.7,2-0.6,2.6,0.2
		c0.6,0.7,0.6,1.8,0,2.5l-10,9.7C304.5,111.1,304,111.3,303.6,111.3z"></path></g></svg>