<svg id="Layer_1" data-name="Layer 1" xmlns="http://www.w3.org/2000/svg" viewBox="0 0 446.28 330.28"><defs><style>.cls-1{fill:#dff3fc;}.cls-2{fill:#a2c7eb;}.cls-20,.cls-21,.cls-27,.cls-28,.cls-29,.cls-3,.cls-7{fill:none;}.cls-3{stroke:#a2c7eb;}.cls-20,.cls-21,.cls-27,.cls-28,.cls-29,.cls-3,.cls-4,.cls-7{stroke-miterlimit:10;}.cls-4,.cls-6{fill:#0097d8;}.cls-4{stroke:#0097d8;}.cls-5{fill:#fff;}.cls-7{stroke:#6f8bbf;}.cls-20,.cls-21,.cls-27,.cls-28,.cls-29,.cls-7{stroke-linecap:round;}.cls-8{fill:#e06a58;}.cls-9{fill:#f2ae30;}.cls-10{fill:#0a2240;}.cls-11{fill:#f9a07b;}.cls-12{fill:#ffc73c;}.cls-13{fill:#fb3;}.cls-14{fill:#fce172;}.cls-15{fill:#325f73;}.cls-16{fill:#0b2d50;}.cls-17{fill:#3c738c;}.cls-18{fill:#56c4f9;}.cls-19{fill:#225570;}.cls-20{stroke:#0b2d50;}.cls-20,.cls-21,.cls-27{stroke-width:2px;}.cls-21,.cls-28{stroke:#cc454e;}.cls-22{fill:#262d40;}.cls-23{fill:#cc454e;}.cls-24{fill:#e8729b;}.cls-25{fill:#3d86e0;}.cls-26{fill:#3a92c9;}.cls-27{stroke:#3a92c9;}.cls-29{stroke:#f2ae30;}</style></defs><path class="cls-1" d="M766.17,700.94c-47.49-36.11-68.64-136.24,8.47-185.34,51.05-32.5,82.8-14,140.23-35.46,70.11-26.24,80.56-105.52,165.84-66.51,45.18,20.66,76.5,78.89,82,145.07,5.4,64.81-17.57,109.28-64.51,139.71C988,703.1,877.53,702.25,766.17,700.94Z" transform="translate(-723.56 -376.23)"/><path class="cls-1" d="M961.26,416.13c7.18,28.8-19.46,57.31-47.52,69.13s-60.25,10.42-90.31,4.78c-13-2.43-26.31-5.85-36.38-14.12s-15.92-22.63-10.4-34.23c4.87-10.23,16.74-15.47,28.05-18.16s23.33-3.79,33.41-9.45c9.55-5.37,16.33-14.26,24.64-21.3,15.36-13,36.93-19.43,56.89-15.32S955.17,391.65,961.26,416.13Z" transform="translate(-723.56 -376.23)"/><path class="cls-2" d="M746.4,548.6V526.81h8.26a42.47,42.47,0,0,1,4.44-10.71l-5.84-5.85,15.41-15.41,5.85,5.84a42.11,42.11,0,0,1,10.71-4.44V488H807v8.26a42.11,42.11,0,0,1,10.71,4.44l5.85-5.84L839,510.25l-5.84,5.85a42.84,42.84,0,0,1,4.44,10.71h8.26V548.6h-8.26a42.84,42.84,0,0,1-4.44,10.71l5.84,5.85-15.41,15.4-5.85-5.84A42.87,42.87,0,0,1,807,579.17v8.26H785.23v-8.26a42.87,42.87,0,0,1-10.71-4.45l-5.85,5.84-15.41-15.4,5.84-5.85a42.47,42.47,0,0,1-4.44-10.71Zm49.72,8a18.88,18.88,0,1,0-18.87-18.88A18.88,18.88,0,0,0,796.12,556.58Z" transform="translate(-723.56 -376.23)"/><path class="cls-3" d="M812.24,603.19l4.15-10.81,4.09,1.57a22.47,22.47,0,0,1,4.24-4.46l-1.78-4,10.57-4.7,1.79,4a22.25,22.25,0,0,1,6.16-.17l1.57-4.1,10.81,4.15-1.58,4.1a22.24,22.24,0,0,1,4.47,4.24l4-1.79,4.71,10.57-4,1.79a22.64,22.64,0,0,1,.17,6.16l4.1,1.57-4.15,10.81-4.1-1.57a22.74,22.74,0,0,1-4.24,4.46l1.79,4-10.58,4.71-1.79-4a22.18,22.18,0,0,1-6.15.17l-1.57,4.1-10.81-4.15,1.57-4.09a22.81,22.81,0,0,1-4.46-4.25l-4,1.79-4.71-10.57,4-1.79a22.64,22.64,0,0,1-.16-6.16Zm23.14,13.42a10,10,0,1,0-5.77-13A10,10,0,0,0,835.38,616.61Z" transform="translate(-723.56 -376.23)"/><path class="cls-3" d="M847.64,565.29l2.8-7.3,2.77,1.06a15,15,0,0,1,2.87-3l-1.21-2.71,7.15-3.18,1.21,2.71a15.2,15.2,0,0,1,4.16-.12l1.06-2.76,7.3,2.8-1.06,2.76a15.49,15.49,0,0,1,3,2.87l2.72-1.2,3.18,7.14-2.71,1.21a15.62,15.62,0,0,1,.11,4.16l2.77,1.06-2.8,7.3L878.2,577a15.26,15.26,0,0,1-2.87,3l1.21,2.71-7.14,3.18-1.21-2.71a15.23,15.23,0,0,1-4.16.11L863,586.09l-7.3-2.8,1.06-2.77a15.43,15.43,0,0,1-3-2.86l-2.71,1.2-3.19-7.14,2.71-1.21a15.23,15.23,0,0,1-.11-4.16Zm15.64,9.06a6.77,6.77,0,1,0-3.9-8.75A6.77,6.77,0,0,0,863.28,574.35Z" transform="translate(-723.56 -376.23)"/><path class="cls-4" d="M850.18,437.46A34.43,34.43,0,1,0,884.61,403,34.39,34.39,0,0,0,850.18,437.46Z" transform="translate(-723.56 -376.23)"/><circle class="cls-5" cx="884.61" cy="426.13" r="11.27" transform="translate(-370.24 875.64) rotate(-82.96)"/><path class="cls-5" d="M863.26,460.13a34.46,34.46,0,0,0,42.7,0c-2.2-9.69-4.23-18.05-6.34-20.17-3-3-10.88-4.71-15-4.71s-12.39,2.1-13.92,3.63C867.57,442,864.89,450.59,863.26,460.13Z" transform="translate(-723.56 -376.23)"/><path class="cls-6" d="M934.09,522.32v-17a8.4,8.4,0,0,0-8.4-8.4H872.13a8.4,8.4,0,0,0-8.4,8.4v17a8.4,8.4,0,0,0,8.4,8.4h53.55A8.4,8.4,0,0,0,934.09,522.32Z" transform="translate(-723.56 -376.23)"/><polyline class="cls-6" points="187.91 145.21 213.83 170.46 171.82 149.22"/><path class="cls-5" d="M927.59,504.9v-.09a1.25,1.25,0,0,0-1.25-1.25H899.86a1.25,1.25,0,0,0-1.25,1.25v.09a1.25,1.25,0,0,0,1.25,1.25h26.48A1.25,1.25,0,0,0,927.59,504.9Z" transform="translate(-723.56 -376.23)"/><path class="cls-5" d="M897.42,504.9v-.09a1.25,1.25,0,0,0-1.25-1.25H873.06a1.25,1.25,0,0,0-1.25,1.25v.09a1.25,1.25,0,0,0,1.25,1.25h23.11A1.25,1.25,0,0,0,897.42,504.9Z" transform="translate(-723.56 -376.23)"/><path class="cls-5" d="M907.51,510.59v-.09a1.25,1.25,0,0,0-1.25-1.25h-33.2a1.25,1.25,0,0,0-1.25,1.25v.09a1.25,1.25,0,0,0,1.25,1.25h33.2A1.25,1.25,0,0,0,907.51,510.59Z" transform="translate(-723.56 -376.23)"/><path class="cls-5" d="M927.59,510.59v-.09a1.25,1.25,0,0,0-1.25-1.25H911.51a1.25,1.25,0,0,0-1.25,1.25v.09a1.25,1.25,0,0,0,1.25,1.25h14.83A1.25,1.25,0,0,0,927.59,510.59Z" transform="translate(-723.56 -376.23)"/><path class="cls-5" d="M902.9,516.28v-.09a1.25,1.25,0,0,0-1.25-1.25H873.06a1.25,1.25,0,0,0-1.25,1.25v.09a1.25,1.25,0,0,0,1.25,1.25h28.59A1.25,1.25,0,0,0,902.9,516.28Z" transform="translate(-723.56 -376.23)"/><path class="cls-5" d="M927.59,516.28v-.09a1.25,1.25,0,0,0-1.25-1.25H906.59a1.25,1.25,0,0,0-1.25,1.25v.09a1.25,1.25,0,0,0,1.25,1.25h19.75A1.25,1.25,0,0,0,927.59,516.28Z" transform="translate(-723.56 -376.23)"/><path class="cls-5" d="M927.59,522v-.09a1.25,1.25,0,0,0-1.25-1.25H919a1.25,1.25,0,0,0-1.25,1.25V522a1.25,1.25,0,0,0,1.25,1.25h7.33A1.25,1.25,0,0,0,927.59,522Z" transform="translate(-723.56 -376.23)"/><path class="cls-5" d="M915.17,522v-.09a1.25,1.25,0,0,0-1.25-1.25H873.06a1.25,1.25,0,0,0-1.25,1.25V522a1.25,1.25,0,0,0,1.25,1.25h40.86A1.25,1.25,0,0,0,915.17,522Z" transform="translate(-723.56 -376.23)"/><circle class="cls-6" cx="1096.33" cy="484.29" r="33.12" transform="translate(-825.53 131.5) rotate(-24.95)"/><circle class="cls-5" cx="1104.13" cy="500.54" r="8.03" transform="translate(-457.58 1000.18) rotate(-70.65)"/><polygon class="cls-6" points="384.79 127.19 385.18 122.1 380.96 119.22 376.36 121.43 375.98 126.52 380.19 129.4 384.79 127.19"/><circle class="cls-5" cx="1088.52" cy="468.03" r="8.03" transform="translate(-442.17 959.25) rotate(-70.33)"/><polygon class="cls-6" points="368.95 94.2 368.67 87.72 363.8 83.46 359.19 85.67 359.47 92.14 364.35 96.41 368.95 94.2"/><path class="cls-5" d="M1098.57,496.83l6.14-2.95-4.53-10.46c-.29-.67-.6-1.32-.94-2l-5.33-10.09-6.14,2.95,4.37,10.31c.34.8.72,1.58,1.13,2.34Z" transform="translate(-723.56 -376.23)"/><path class="cls-6" d="M1073.32,502.1c-1.18-.54-20.18.32-20.18.32l13.69-12.57Z" transform="translate(-723.56 -376.23)"/><circle class="cls-6" cx="1019.33" cy="415.36" r="32.55" transform="translate(-804.68 62.62) rotate(-23.39)"/><rect class="cls-5" x="1018.25" y="387.62" width="2.17" height="27.34" transform="translate(1315.11 426.34) rotate(180)"/><rect class="cls-5" x="1030.26" y="409.88" width="2.17" height="27.71" transform="translate(-627.6 654.36) rotate(-55.31)"/><path class="cls-5" d="M1016.34,415.36a3,3,0,1,0,3-3A3,3,0,0,0,1016.34,415.36Z" transform="translate(-723.56 -376.23)"/><path class="cls-2" d="M931,635.78c1.93-29.76-11.09-60.56-33-78.18C897.26,587.51,910.15,617.78,931,635.78Z" transform="translate(-723.56 -376.23)"/><path class="cls-7" d="M901.52,565.61a394.73,394.73,0,0,1,23.87,53.83c8.07,22.57,14.42,46.55,28.24,65.47" transform="translate(-723.56 -376.23)"/><path class="cls-2" d="M937.88,654.5c-11.1-24.83-33.13-43.59-57.42-48.9C890.8,632.21,914.06,652.51,937.88,654.5Z" transform="translate(-723.56 -376.23)"/><path class="cls-7" d="M886.42,611.07Q911.31,633,937,653.63" transform="translate(-723.56 -376.23)"/><path class="cls-2" d="M944.43,676.13C929.6,654,902.24,642.42,879.6,648.74,896.25,670.61,923.67,682.2,944.43,676.13Z" transform="translate(-723.56 -376.23)"/><path class="cls-7" d="M885,650.34a215.86,215.86,0,0,0,62,26.54" transform="translate(-723.56 -376.23)"/><path class="cls-2" d="M936.42,647c-4.74-24.94,2.37-52.74,18.2-71.13C961.11,600.35,954.92,629.07,936.42,647Z" transform="translate(-723.56 -376.23)"/><path class="cls-7" d="M953,582.2a270,270,0,0,1-17.27,66.17" transform="translate(-723.56 -376.23)"/><path class="cls-2" d="M944.56,668.21c2-25.64,15.16-49.72,34.38-63a109.57,109.57,0,0,1-10.45,38.57C961.9,657.44,952.22,666.11,944.56,668.21Z" transform="translate(-723.56 -376.23)"/><path class="cls-7" d="M976.09,610.39a203.69,203.69,0,0,1-32,58.36" transform="translate(-723.56 -376.23)"/><path class="cls-2" d="M796.13,662.06c-10.49-27.29-34.62-49.43-61.23-56.17C746.56,632.81,770.36,654.51,796.13,662.06Z" transform="translate(-723.56 -376.23)"/><path class="cls-7" d="M741.35,611.56a387.74,387.74,0,0,1,43.16,38.21c16.38,16.82,31.83,35.58,51.8,46.8" transform="translate(-723.56 -376.23)"/><path class="cls-2" d="M809.92,675.91c-20-17.59-47.15-25.31-70.79-20.13C759.17,675.27,788.05,683.86,809.92,675.91Z" transform="translate(-723.56 -376.23)"/><path class="cls-7" d="M746.64,658.23q31,9.36,62.18,17.26" transform="translate(-723.56 -376.23)"/><path class="cls-2" d="M824.58,692.51c-22.19-13.68-51.11-12.81-68.53,2.06C779.73,707.25,808.72,706.38,824.58,692.51Z" transform="translate(-723.56 -376.23)"/><path class="cls-7" d="M761.5,693.77a209.06,209.06,0,0,0,65.7-1.67" transform="translate(-723.56 -376.23)"/><path class="cls-2" d="M805.54,669.8C791.13,649.52,786,621.85,792.47,599,808.26,618.19,814.56,646.3,805.54,669.8Z" transform="translate(-723.56 -376.23)"/><path class="cls-7" d="M793.64,605.33a265.89,265.89,0,0,1,11.85,66" transform="translate(-723.56 -376.23)"/><path class="cls-2" d="M821.44,685.4c-8.72-23.66-7-50.48,4.56-70.16a108.18,108.18,0,0,1,6.57,38.62C832.36,668.72,827.36,680.4,821.44,685.4Z" transform="translate(-723.56 -376.23)"/><path class="cls-7" d="M825.62,621a200.54,200.54,0,0,1-4.37,65.05" transform="translate(-723.56 -376.23)"/><path class="cls-2" d="M1093.43,614.35c10.69-32.71,40.54-59.14,75.25-66.64C1154.09,576,1127.61,598.53,1093.43,614.35Z" transform="translate(-723.56 -376.23)"/><path class="cls-2" d="M1091.62,619.42a99,99,0,0,1,78.22-7.79A110.44,110.44,0,0,1,1091.62,619.42Z" transform="translate(-723.56 -376.23)"/><path class="cls-2" d="M1085.14,626.52c25.32-3.51,51.83,2.73,72.39,17C1134.21,652,1106.24,646.53,1085.14,626.52Z" transform="translate(-723.56 -376.23)"/><path class="cls-2" d="M1077.25,642c25.07-.1,49.72,11.81,64.45,31.16a55.12,55.12,0,0,1-33.24-3.74C1098.22,664.8,1089.65,656.88,1077.25,642Z" transform="translate(-723.56 -376.23)"/><path class="cls-2" d="M1059.57,667.94c24.72-4.24,51.06,3.42,68.89,20a55.38,55.38,0,0,1-33.44,1.82C1084.13,686.92,1074.33,680.54,1059.57,667.94Z" transform="translate(-723.56 -376.23)"/><path class="cls-2" d="M1086.26,615.9c16.32-22,20.75-51.66,11.48-76.88-7.08,12-13.19,24.67-16,38.15S1079.4,605,1086.26,615.9Z" transform="translate(-723.56 -376.23)"/><path class="cls-2" d="M1076.29,637.13a75.87,75.87,0,0,0-21-65.09C1053.33,596.23,1060.73,620.87,1076.29,637.13Z" transform="translate(-723.56 -376.23)"/><path class="cls-7" d="M1161.08,553.57c-49.68,31.79-88.54,79.17-109,133" transform="translate(-723.56 -376.23)"/><path class="cls-7" d="M1096.2,550.62a394.13,394.13,0,0,0-11,74.72" transform="translate(-723.56 -376.23)"/><path class="cls-7" d="M1059,581.53a145.66,145.66,0,0,0,17.87,56.58" transform="translate(-723.56 -376.23)"/><path class="cls-7" d="M1159.38,612.2a401.84,401.84,0,0,1-69.09,7" transform="translate(-723.56 -376.23)"/><path class="cls-7" d="M1145.65,641.61a185.78,185.78,0,0,1-60.76-15" transform="translate(-723.56 -376.23)"/><path class="cls-7" d="M1133.07,669.64l-58.14-29" transform="translate(-723.56 -376.23)"/><path class="cls-7" d="M1120.46,686.71c-25.3-4.89-32.82-10.71-60.9-18.77" transform="translate(-723.56 -376.23)"/><path class="cls-8" d="M960.28,640.36s-2.19,20.07-4.64,21.68c-4.38,2.89-55.08,9.57-55.08,9.57l1.66,13.19s69.44,6.24,72.39,2.77c5.12-6,14.12-35.06,14.12-35.06Z" transform="translate(-723.56 -376.23)"/><path class="cls-9" d="M993.76,588.69l-5.61-13.47s-15.22,7.15-20.24,16c-5.37,9.44-11.94,59.63-11.94,59.63s26.87,6.19,31.81,3.56S993.76,588.69,993.76,588.69Z" transform="translate(-723.56 -376.23)"/><path class="cls-10" d="M1036.49,526.17c3.93-1.44,8.09-2.7,12.3-2.38s8.51,2.55,9.94,6.25c1,2.62.55,5.71,2.16,8.07s4.6,3.2,7.46,3.39,5.76-.18,8.61.19c8.8,1.17,15.08,10.73,12.19,18.56-1.15,3.12-3.51,6.1-3,9.35.57,3.48,4.22,5.77,5.72,9,2,4.3-.39,9.51-4.32,12.44s-9,4-14,4.77c-6.83,1-13.88,1.5-20.63.06s-13.2-5-16.69-10.56c-1.55-2.46-2.49-5.24-4.29-7.55-3.72-4.77-10.31-6.62-15.5-10-5.67-3.71-9.83-10.93-6.49-16.58,3.22-5.43,11.6-6.64,15-12,1.39-2.21,1.72-4.84,2.62-7.25S1030.68,528.3,1036.49,526.17Z" transform="translate(-723.56 -376.23)"/><path class="cls-11" d="M1013.59,592.78c-1,1.14-2.16,2.39-3.78,2.5s-3.14-1.09-4.24-2.26a43,43,0,0,1-11-21c1.41-.8,2.77-1.57,4-2.29a6.07,6.07,0,0,0,2.49-2.74,5.26,5.26,0,0,0,.37-2.58,73.74,73.74,0,0,0-4.15-19.34c12.54-2.83,24.37-6.19,31.17-11.87.83,3.5,1.81,10.35,3.9,17.14,2.23,7.19,5.71,14.3,11.61,17.36A124.42,124.42,0,0,0,1013.59,592.78Z" transform="translate(-723.56 -376.23)"/><path class="cls-8" d="M1001.48,564.42a5.25,5.25,0,0,1-.37,2.58c7.42,9,24-2.76,31.29-16.65-2.09-6.79-3.07-13.64-3.9-17.14-6.79,5.68-18.63,9-31.17,11.87A73.66,73.66,0,0,1,1001.48,564.42Z" transform="translate(-723.56 -376.23)"/><path class="cls-12" d="M980.82,673.22c1.64,10.86-10.08,22.55-10.37,28.35,24.89,0,77,1.52,103.58-2.09,1.21-6.7-11.9-21.77-11.9-36.65,0-2,.08-4.13.24-6.45.42-6.64,1.4-14.54,2.49-22.64,3-21.73,6.9-45,4-49.79-5.7-9.39-19-15.77-25.64-18.51-2.27-.94-3.75-1.45-3.86-1.51-8.29,14.14-25.16,26.2-31.53,25.66-1.77-.14-7-2-10.49-19.44-1.35.77-2.7,1.48-4,2.17-6.59,3.43-12.77,6.26-14.55,10.67-4.7,11.61-9.31,40.88-8.29,51.29s5.25,18.52,8.21,29.06c.69,2.47,1.32,5.09,1.83,7.91C980.62,671.88,980.72,672.54,980.82,673.22Z" transform="translate(-723.56 -376.23)"/><path class="cls-13" d="M970.45,701.57c24.89,0,77,1.52,103.58-2.09,1.21-6.7-11.9-21.77-11.9-36.65,0-2,.08-4.13.24-6.45.42-6.64,1.4-14.54,2.49-22.64-4.71,5-11.58-16-14.62-9.88-16.45,33.2-29.42,41.93-52,41.93a86.54,86.54,0,0,1-19.62-2.45c.69,2.47,1.32,5.09,1.83,7.91q.18,1,.33,2C982.46,684.07,970.74,695.76,970.45,701.57Z" transform="translate(-723.56 -376.23)"/><path class="cls-14" d="M993.29,572.32c1.07,7.77,4.24,18.24,13.46,21,12.46,3.73,30.49-19.55,36.46-27.88-2.27-.94-3.75-1.45-3.86-1.51-8.29,14.14-25.16,26.2-31.53,25.66-1.77-.14-7-2-10.49-19.44C996,570.91,994.63,571.62,993.29,572.32Z" transform="translate(-723.56 -376.23)"/><polygon class="cls-15" points="264.61 313.65 264.7 322.32 109.7 323.25 109.38 313.42 264.61 313.65"/><polygon class="cls-15" points="42.52 236.31 45.97 232.81 158.87 232.06 215.51 313.98 212.55 316.36 42.52 236.31"/><polygon class="cls-16" points="156.69 235.09 212.55 316.36 105.85 316.88 42.52 236.31 156.69 235.09"/><ellipse class="cls-17" cx="129.73" cy="280.75" rx="12.42" ry="6.21"/><ellipse class="cls-18" cx="974.6" cy="533.21" rx="11.47" ry="17.39" transform="translate(-804.74 -188.66) rotate(-10.56)"/><path class="cls-16" d="M963.31,505.67c1.16,8.22,4.83,17.28,10.18,27.29,1.88-8.2,3.08-18.19,4.74-28.18s3.84-20,7.57-28.2a49,49,0,0,1,2.74-5.14A18.25,18.25,0,0,0,982,472a22,22,0,0,0-9,4.91,31.56,31.56,0,0,0-8.77,14.33A32.16,32.16,0,0,0,963.31,505.67Z" transform="translate(-723.56 -376.23)"/><path class="cls-11" d="M969.59,514.17c.06,1.62.17,3.27.32,4.91,2.28,26.6,13.45,44.85,30.54,44.85,24.13,0,39.77-27.06,39.77-53.57,0-26.15-16-45.08-34.77-42.89-10.81,1.24-18.71,4.83-24.32,10.09a33.15,33.15,0,0,0-8.22,12.54,54.83,54.83,0,0,0-3.31,18.06s0,0,0,.06C969.5,510.16,969.52,512.14,969.59,514.17Z" transform="translate(-723.56 -376.23)"/><path class="cls-8" d="M969.59,514.17a26.73,26.73,0,0,1,3.25-7.33,75.93,75.93,0,0,0,47.27,7.59l9.06,7.57c-.06-12.1-.23-20.29-5-26.15-4.43-5.5-11.82-7.57-18.82-8.47a87.05,87.05,0,0,0-23.75.15,24,24,0,0,0-8.75,2.59,54.83,54.83,0,0,0-3.31,18.06s0,0,0,.06C969.5,510.16,969.52,512.14,969.59,514.17Z" transform="translate(-723.56 -376.23)"/><path class="cls-16" d="M966.11,497.79a44.58,44.58,0,0,0,12.12,7c13.26,5.35,30.49,7.12,43.92,6.47,6.6,14.5,9.27,19.7,11,32.35,6.45-6.05,11.7-17.13,13.26-25.84a59.1,59.1,0,0,0-1-26.32,39.36,39.36,0,0,0-20.08-24.15,37.74,37.74,0,0,0-4.32-2c-8.51-3.29-18.1-3-26.83-.32A32,32,0,0,0,982,472c-6.81,6.15-11,14.48-13.74,20.72C967.37,494.67,966.68,496.4,966.11,497.79Z" transform="translate(-723.56 -376.23)"/><path class="cls-19" d="M963.31,505.67a40.71,40.71,0,0,1,2.53-8.45,29.12,29.12,0,0,1,2.38-4.47A24.51,24.51,0,0,1,981,482.34a47,47,0,0,1,4.8-5.75,37,37,0,0,1,20.67-10.9,39.27,39.27,0,0,1,18.78,1.6,37.74,37.74,0,0,0-4.32-2c-8.51-3.29-18.1-3-26.83-.32A32,32,0,0,0,982,472a22,22,0,0,0-9,4.91,31.56,31.56,0,0,0-8.77,14.33A32.3,32.3,0,0,0,963.31,505.67Z" transform="translate(-723.56 -376.23)"/><path class="cls-20" d="M1014.46,522c-4.46-2.55-9.09-3.7-15.58-1.33" transform="translate(-723.56 -376.23)"/><path class="cls-20" d="M983.92,521.8c-3.82-2.85-9.48-3.14-12.43,0" transform="translate(-723.56 -376.23)"/><path class="cls-21" d="M988.53,536.34c-.39,2-.18,6.49.78,8.5" transform="translate(-723.56 -376.23)"/><ellipse class="cls-22" cx="280.04" cy="158.57" rx="1.84" ry="2.9"/><ellipse class="cls-22" cx="255.99" cy="157.22" rx="1.84" ry="2.9"/><path class="cls-23" d="M990.81,548.79a14.13,14.13,0,0,0,1.05,1.65,11.42,11.42,0,0,0,5.43,4.23h0a7.09,7.09,0,0,0,3.49.23c3.76-.67,4.75-4.14,4.93-6.81a14.29,14.29,0,0,0,0-1.44,13.63,13.63,0,0,0-.14-1.8C999.62,548.15,990.81,548.79,990.81,548.79Z" transform="translate(-723.56 -376.23)"/><path class="cls-5" d="M990.81,548.79a14.13,14.13,0,0,0,1.05,1.65c3.06,0,9.32-1.61,13.89-3.79a13.63,13.63,0,0,0-.14-1.8C999.62,548.15,990.81,548.79,990.81,548.79Z" transform="translate(-723.56 -376.23)"/><path class="cls-24" d="M997.3,554.66a7.09,7.09,0,0,0,3.49.23c3.76-.67,4.75-4.14,4.93-6.81a10.24,10.24,0,0,0-8.42,6.58Z" transform="translate(-723.56 -376.23)"/><path class="cls-25" d="M1033.05,517.39a69.13,69.13,0,0,0-5-24.86c-6.51-15.55-19.78-22.2-32.65-22.65a35.07,35.07,0,0,0-25.22,9.86s5-8.91,15-11.47c6.54-1.68,16.41-1.95,24.33,1.27,8.16,3.31,18.33,12.5,22,22.21s5.46,24.83,5.46,24.83Z" transform="translate(-723.56 -376.23)"/><ellipse class="cls-18" cx="1035.2" cy="531.64" rx="18.32" ry="12.09" transform="matrix(0.1, -0.99, 0.99, 0.1, -324.19, 1130.08)"/><ellipse class="cls-25" cx="1038.41" cy="532.97" rx="13.81" ry="7.85" transform="translate(-366.5 1104.43) rotate(-81.45)"/><ellipse class="cls-26" cx="271.76" cy="184.06" rx="6.44" ry="4.01"/><path class="cls-27" d="M1027.67,546.88s-9.46,12.16-25.91,13.41" transform="translate(-723.56 -376.23)"/><path class="cls-11" d="M988.26,666.73l.62,16s57.83,17.33,67.38,11.85c4.66-2.68,9-17.42,12.26-31.81,3.4-15.12,5.58-29.84,5.58-29.84l-33.9-6.64s0,20.67-1.17,32.62c-.41,4.45-1,7.69-1.79,8.22C1034.25,669.09,988.26,666.73,988.26,666.73Z" transform="translate(-723.56 -376.23)"/><path class="cls-8" d="M1039,658.88c6.16,2,18,5.09,29.49,3.87,3.4-15.12,5.58-29.84,5.58-29.84l-33.9-6.64S1040.18,646.93,1039,658.88Z" transform="translate(-723.56 -376.23)"/><path class="cls-11" d="M989.91,666.89c-8.6-1.84-23.16-6.26-29.2-7.78-4.29-1.08-15.46,4.7-18.41,10.15-1.29,2.38-2.51,15.86,2,14.47,2.24-.7,1.87-6.48,2.57-8.84.57-1.92,2.39-3.78,5.16-5.38-1.85,4.61-1.78,8.63-1.58,13.61a7.06,7.06,0,0,0,.64,3.2,2.3,2.3,0,0,0,2.7,1.21c1-.42,1.37-1.69,1.6-2.8a91,91,0,0,0,1.91-12c-.08,4.27,0,8.55.28,12.81.2,3.26,1.82,5.05,3.81,4.48.89-.25,1.25-1.07,1.63-2.15.6,2.09,2.1,4.4,4,3.52,1.18-.53,1.91-4.79,1.7-9.17a25.66,25.66,0,0,0,12.76,3.51c4.34.2,8.78-.61,11.39-3.56A76.72,76.72,0,0,0,989.91,666.89Z" transform="translate(-723.56 -376.23)"/><path class="cls-28" d="M962.89,687.19a30.57,30.57,0,0,1,.89-10.31" transform="translate(-723.56 -376.23)"/><path class="cls-12" d="M1044,592.74c2.46-6.93,11.47-21.11,11.47-21.11s13.75,5.72,18.63,15.43c8.26,16.44,4.06,63.64,4.06,63.64-11.13,4.66-33.47,4.73-43,3.39C1035.19,654.09,1039.08,606.59,1044,592.74Z" transform="translate(-723.56 -376.23)"/><path class="cls-29" d="M1042.26,595.64a305.75,305.75,0,0,0-6.4,51.09" transform="translate(-723.56 -376.23)"/><rect class="cls-16" x="24.4" y="320.39" width="394.28" height="9.89"/></svg>